<?xml version="1.0"?>
<svg xmlns="http://www.w3.org/2000/svg" xmlns:xlink="http://www.w3.org/1999/xlink" width="1024" height="1024" viewBox="0 0 500 500">
  <defs>
    <clipPath id="qr-clip-path-background-color-11">
      <rect x="0" y="0" width="500" height="500"/>
    </clipPath>
    <clipPath id="qr-clip-path-dot-color-11">
      <path d="M 178 18L 194 18L 194 34L 178 34ZM 210 18L 226 18L 226 34L 210 34ZM 258 18L 274 18L 274 34L 258 34ZM 274 18L 290 18L 290 34L 274 34ZM 322 18L 338 18L 338 34L 322 34ZM 338 18L 354 18L 354 34L 338 34ZM 162 34L 178 34L 178 50L 162 50ZM 194 34L 210 34L 210 50L 194 50ZM 210 34L 226 34L 226 50L 210 50ZM 290 34L 306 34L 306 50L 290 50ZM 306 34L 322 34L 322 50L 306 50ZM 338 34L 354 34L 354 50L 338 50ZM 146 50L 162 50L 162 66L 146 66ZM 162 50L 178 50L 178 66L 162 66ZM 178 50L 194 50L 194 66L 178 66ZM 210 50L 226 50L 226 66L 210 66ZM 242 50L 258 50L 258 66L 242 66ZM 274 50L 290 50L 290 66L 274 66ZM 146 66L 162 66L 162 82L 146 82ZM 194 66L 210 66L 210 82L 194 82ZM 210 66L 226 66L 226 82L 210 82ZM 274 66L 290 66L 290 82L 274 82ZM 290 66L 306 66L 306 82L 290 82ZM 338 66L 354 66L 354 82L 338 82ZM 146 82L 162 82L 162 98L 146 98ZM 162 82L 178 82L 178 98L 162 98ZM 210 82L 226 82L 226 98L 210 98ZM 226 82L 242 82L 242 98L 226 98ZM 242 82L 258 82L 258 98L 242 98ZM 258 82L 274 82L 274 98L 258 98ZM 322 82L 338 82L 338 98L 322 98ZM 338 82L 354 82L 354 98L 338 98ZM 146 98L 162 98L 162 114L 146 114ZM 162 98L 178 98L 178 114L 162 114ZM 178 98L 194 98L 194 114L 178 114ZM 210 98L 226 98L 226 114L 210 114ZM 226 98L 242 98L 242 114L 226 114ZM 242 98L 258 98L 258 114L 242 114ZM 258 98L 274 98L 274 114L 258 114ZM 274 98L 290 98L 290 114L 274 114ZM 306 98L 322 98L 322 114L 306 114ZM 338 98L 354 98L 354 114L 338 114ZM 146 114L 162 114L 162 130L 146 130ZM 178 114L 194 114L 194 130L 178 130ZM 210 114L 226 114L 226 130L 210 130ZM 242 114L 258 114L 258 130L 242 130ZM 274 114L 290 114L 290 130L 274 130ZM 306 114L 322 114L 322 130L 306 130ZM 338 114L 354 114L 354 130L 338 130ZM 146 130L 162 130L 162 146L 146 146ZM 162 130L 178 130L 178 146L 162 146ZM 178 130L 194 130L 194 146L 178 146ZM 194 130L 210 130L 210 146L 194 146ZM 210 130L 226 130L 226 146L 210 146ZM 226 130L 242 130L 242 146L 226 146ZM 258 130L 274 130L 274 146L 258 146ZM 306 130L 322 130L 322 146L 306 146ZM 322 130L 338 130L 338 146L 322 146ZM 338 130L 354 130L 354 146L 338 146ZM 18 146L 34 146L 34 162L 18 162ZM 50 146L 66 146L 66 162L 50 162ZM 66 146L 82 146L 82 162L 66 162ZM 82 146L 98 146L 98 162L 82 162ZM 98 146L 114 146L 114 162L 98 162ZM 114 146L 130 146L 130 162L 114 162ZM 194 146L 210 146L 210 162L 194 162ZM 210 146L 226 146L 226 162L 210 162ZM 242 146L 258 146L 258 162L 242 162ZM 258 146L 274 146L 274 162L 258 162ZM 290 146L 306 146L 306 162L 290 162ZM 322 146L 338 146L 338 162L 322 162ZM 370 146L 386 146L 386 162L 370 162ZM 386 146L 402 146L 402 162L 386 162ZM 402 146L 418 146L 418 162L 402 162ZM 418 146L 434 146L 434 162L 418 162ZM 434 146L 450 146L 450 162L 434 162ZM 18 162L 34 162L 34 178L 18 178ZM 34 162L 50 162L 50 178L 34 178ZM 82 162L 98 162L 98 178L 82 178ZM 98 162L 114 162L 114 178L 98 178ZM 162 162L 178 162L 178 178L 162 178ZM 210 162L 226 162L 226 178L 210 178ZM 258 162L 274 162L 274 178L 258 178ZM 274 162L 290 162L 290 178L 274 178ZM 322 162L 338 162L 338 178L 322 178ZM 354 162L 370 162L 370 178L 354 178ZM 370 162L 386 162L 386 178L 370 178ZM 386 162L 402 162L 402 178L 386 178ZM 402 162L 418 162L 418 178L 402 178ZM 466 162L 482 162L 482 178L 466 178ZM 18 178L 34 178L 34 194L 18 194ZM 66 178L 82 178L 82 194L 66 194ZM 98 178L 114 178L 114 194L 98 194ZM 114 178L 130 178L 130 194L 114 194ZM 130 178L 146 178L 146 194L 130 194ZM 194 178L 210 178L 210 194L 194 194ZM 338 178L 354 178L 354 194L 338 194ZM 370 178L 386 178L 386 194L 370 194ZM 18 194L 34 194L 34 210L 18 210ZM 34 194L 50 194L 50 210L 34 210ZM 82 194L 98 194L 98 210L 82 210ZM 130 194L 146 194L 146 210L 130 210ZM 146 194L 162 194L 162 210L 146 210ZM 194 194L 210 194L 210 210L 194 210ZM 210 194L 226 194L 226 210L 210 210ZM 242 194L 258 194L 258 210L 242 210ZM 274 194L 290 194L 290 210L 274 210ZM 338 194L 354 194L 354 210L 338 210ZM 354 194L 370 194L 370 210L 354 210ZM 370 194L 386 194L 386 210L 370 210ZM 386 194L 402 194L 402 210L 386 210ZM 418 194L 434 194L 434 210L 418 210ZM 450 194L 466 194L 466 210L 450 210ZM 18 210L 34 210L 34 226L 18 226ZM 34 210L 50 210L 50 226L 34 226ZM 50 210L 66 210L 66 226L 50 226ZM 66 210L 82 210L 82 226L 66 226ZM 82 210L 98 210L 98 226L 82 226ZM 98 210L 114 210L 114 226L 98 226ZM 114 210L 130 210L 130 226L 114 226ZM 162 210L 178 210L 178 226L 162 226ZM 178 210L 194 210L 194 226L 178 226ZM 194 210L 210 210L 210 226L 194 226ZM 274 210L 290 210L 290 226L 274 226ZM 290 210L 306 210L 306 226L 290 226ZM 306 210L 322 210L 322 226L 306 226ZM 418 210L 434 210L 434 226L 418 226ZM 434 210L 450 210L 450 226L 434 226ZM 18 226L 34 226L 34 242L 18 242ZM 50 226L 66 226L 66 242L 50 242ZM 162 226L 178 226L 178 242L 162 242ZM 178 226L 194 226L 194 242L 178 242ZM 194 226L 210 226L 210 242L 194 242ZM 226 226L 242 226L 242 242L 226 242ZM 242 226L 258 226L 258 242L 242 242ZM 258 226L 274 226L 274 242L 258 242ZM 322 226L 338 226L 338 242L 322 242ZM 338 226L 354 226L 354 242L 338 242ZM 354 226L 370 226L 370 242L 354 242ZM 370 226L 386 226L 386 242L 370 242ZM 386 226L 402 226L 402 242L 386 242ZM 402 226L 418 226L 418 242L 402 242ZM 466 226L 482 226L 482 242L 466 242ZM 18 242L 34 242L 34 258L 18 258ZM 34 242L 50 242L 50 258L 34 258ZM 50 242L 66 242L 66 258L 50 258ZM 98 242L 114 242L 114 258L 98 258ZM 114 242L 130 242L 130 258L 114 258ZM 210 242L 226 242L 226 258L 210 258ZM 226 242L 242 242L 242 258L 226 258ZM 242 242L 258 242L 258 258L 242 258ZM 258 242L 274 242L 274 258L 258 258ZM 274 242L 290 242L 290 258L 274 258ZM 306 242L 322 242L 322 258L 306 258ZM 338 242L 354 242L 354 258L 338 258ZM 386 242L 402 242L 402 258L 386 258ZM 402 242L 418 242L 418 258L 402 258ZM 418 242L 434 242L 434 258L 418 258ZM 434 242L 450 242L 450 258L 434 258ZM 34 258L 50 258L 50 274L 34 274ZM 50 258L 66 258L 66 274L 50 274ZM 82 258L 98 258L 98 274L 82 274ZM 98 258L 114 258L 114 274L 98 274ZM 162 258L 178 258L 178 274L 162 274ZM 226 258L 242 258L 242 274L 226 274ZM 258 258L 274 258L 274 274L 258 274ZM 306 258L 322 258L 322 274L 306 274ZM 322 258L 338 258L 338 274L 322 274ZM 338 258L 354 258L 354 274L 338 274ZM 402 258L 418 258L 418 274L 402 274ZM 450 258L 466 258L 466 274L 450 274ZM 18 274L 34 274L 34 290L 18 290ZM 66 274L 82 274L 82 290L 66 290ZM 82 274L 98 274L 98 290L 82 290ZM 98 274L 114 274L 114 290L 98 290ZM 114 274L 130 274L 130 290L 114 290ZM 242 274L 258 274L 258 290L 242 290ZM 258 274L 274 274L 274 290L 258 290ZM 418 274L 434 274L 434 290L 418 290ZM 434 274L 450 274L 450 290L 434 290ZM 18 290L 34 290L 34 306L 18 306ZM 66 290L 82 290L 82 306L 66 306ZM 82 290L 98 290L 98 306L 82 306ZM 98 290L 114 290L 114 306L 98 306ZM 130 290L 146 290L 146 306L 130 306ZM 146 290L 162 290L 162 306L 146 306ZM 194 290L 210 290L 210 306L 194 306ZM 210 290L 226 290L 226 306L 210 306ZM 258 290L 274 290L 274 306L 258 306ZM 274 290L 290 290L 290 306L 274 306ZM 290 290L 306 290L 306 306L 290 306ZM 306 290L 322 290L 322 306L 306 306ZM 322 290L 338 290L 338 306L 322 306ZM 338 290L 354 290L 354 306L 338 306ZM 354 290L 370 290L 370 306L 354 306ZM 370 290L 386 290L 386 306L 370 306ZM 386 290L 402 290L 402 306L 386 306ZM 402 290L 418 290L 418 306L 402 306ZM 434 290L 450 290L 450 306L 434 306ZM 466 290L 482 290L 482 306L 466 306ZM 18 306L 34 306L 34 322L 18 322ZM 66 306L 82 306L 82 322L 66 322ZM 82 306L 98 306L 98 322L 82 322ZM 98 306L 114 306L 114 322L 98 322ZM 114 306L 130 306L 130 322L 114 322ZM 146 306L 162 306L 162 322L 146 322ZM 178 306L 194 306L 194 322L 178 322ZM 210 306L 226 306L 226 322L 210 322ZM 290 306L 306 306L 306 322L 290 322ZM 338 306L 354 306L 354 322L 338 322ZM 386 306L 402 306L 402 322L 386 322ZM 434 306L 450 306L 450 322L 434 322ZM 18 322L 34 322L 34 338L 18 338ZM 66 322L 82 322L 82 338L 66 338ZM 82 322L 98 322L 98 338L 82 338ZM 194 322L 210 322L 210 338L 194 338ZM 242 322L 258 322L 258 338L 242 338ZM 274 322L 290 322L 290 338L 274 338ZM 354 322L 370 322L 370 338L 354 338ZM 402 322L 418 322L 418 338L 402 338ZM 450 322L 466 322L 466 338L 450 338ZM 18 338L 34 338L 34 354L 18 354ZM 50 338L 66 338L 66 354L 50 354ZM 114 338L 130 338L 130 354L 114 354ZM 130 338L 146 338L 146 354L 130 354ZM 162 338L 178 338L 178 354L 162 354ZM 194 338L 210 338L 210 354L 194 354ZM 274 338L 290 338L 290 354L 274 354ZM 306 338L 322 338L 322 354L 306 354ZM 338 338L 354 338L 354 354L 338 354ZM 354 338L 370 338L 370 354L 354 354ZM 370 338L 386 338L 386 354L 370 354ZM 386 338L 402 338L 402 354L 386 354ZM 402 338L 418 338L 418 354L 402 354ZM 434 338L 450 338L 450 354L 434 354ZM 450 338L 466 338L 466 354L 450 354ZM 466 338L 482 338L 482 354L 466 354ZM 146 354L 162 354L 162 370L 146 370ZM 162 354L 178 354L 178 370L 162 370ZM 178 354L 194 354L 194 370L 178 370ZM 210 354L 226 354L 226 370L 210 370ZM 226 354L 242 354L 242 370L 226 370ZM 242 354L 258 354L 258 370L 242 370ZM 258 354L 274 354L 274 370L 258 370ZM 290 354L 306 354L 306 370L 290 370ZM 306 354L 322 354L 322 370L 306 370ZM 338 354L 354 354L 354 370L 338 370ZM 402 354L 418 354L 418 370L 402 370ZM 418 354L 434 354L 434 370L 418 370ZM 434 354L 450 354L 450 370L 434 370ZM 450 354L 466 354L 466 370L 450 370ZM 466 354L 482 354L 482 370L 466 370ZM 178 370L 194 370L 194 386L 178 386ZM 194 370L 210 370L 210 386L 194 386ZM 226 370L 242 370L 242 386L 226 386ZM 242 370L 258 370L 258 386L 242 386ZM 258 370L 274 370L 274 386L 258 386ZM 274 370L 290 370L 290 386L 274 386ZM 290 370L 306 370L 306 386L 290 386ZM 322 370L 338 370L 338 386L 322 386ZM 338 370L 354 370L 354 386L 338 386ZM 370 370L 386 370L 386 386L 370 386ZM 402 370L 418 370L 418 386L 402 386ZM 418 370L 434 370L 434 386L 418 386ZM 434 370L 450 370L 450 386L 434 386ZM 146 386L 162 386L 162 402L 146 402ZM 178 386L 194 386L 194 402L 178 402ZM 194 386L 210 386L 210 402L 194 402ZM 226 386L 242 386L 242 402L 226 402ZM 258 386L 274 386L 274 402L 258 402ZM 290 386L 306 386L 306 402L 290 402ZM 306 386L 322 386L 322 402L 306 402ZM 322 386L 338 386L 338 402L 322 402ZM 338 386L 354 386L 354 402L 338 402ZM 402 386L 418 386L 418 402L 402 402ZM 466 386L 482 386L 482 402L 466 402ZM 146 402L 162 402L 162 418L 146 418ZM 162 402L 178 402L 178 418L 162 418ZM 178 402L 194 402L 194 418L 178 418ZM 210 402L 226 402L 226 418L 210 418ZM 242 402L 258 402L 258 418L 242 418ZM 258 402L 274 402L 274 418L 258 418ZM 338 402L 354 402L 354 418L 338 418ZM 354 402L 370 402L 370 418L 354 418ZM 370 402L 386 402L 386 418L 370 418ZM 386 402L 402 402L 402 418L 386 418ZM 402 402L 418 402L 418 418L 402 418ZM 434 402L 450 402L 450 418L 434 418ZM 450 402L 466 402L 466 418L 450 418ZM 466 402L 482 402L 482 418L 466 418ZM 146 418L 162 418L 162 434L 146 434ZM 162 418L 178 418L 178 434L 162 434ZM 178 418L 194 418L 194 434L 178 434ZM 194 418L 210 418L 210 434L 194 434ZM 258 418L 274 418L 274 434L 258 434ZM 274 418L 290 418L 290 434L 274 434ZM 306 418L 322 418L 322 434L 306 434ZM 354 418L 370 418L 370 434L 354 434ZM 418 418L 434 418L 434 434L 418 434ZM 434 418L 450 418L 450 434L 434 434ZM 146 434L 162 434L 162 450L 146 450ZM 210 434L 226 434L 226 450L 210 450ZM 306 434L 322 434L 322 450L 306 450ZM 354 434L 370 434L 370 450L 354 450ZM 370 434L 386 434L 386 450L 370 450ZM 386 434L 402 434L 402 450L 386 450ZM 402 434L 418 434L 418 450L 402 450ZM 418 434L 434 434L 434 450L 418 450ZM 434 434L 450 434L 450 450L 434 450ZM 450 434L 466 434L 466 450L 450 450ZM 210 450L 226 450L 226 466L 210 466ZM 226 450L 242 450L 242 466L 226 466ZM 242 450L 258 450L 258 466L 242 466ZM 274 450L 290 450L 290 466L 274 466ZM 322 450L 338 450L 338 466L 322 466ZM 338 450L 354 450L 354 466L 338 466ZM 370 450L 386 450L 386 466L 370 466ZM 386 450L 402 450L 402 466L 386 466ZM 418 450L 434 450L 434 466L 418 466ZM 450 450L 466 450L 466 466L 450 466ZM 146 466L 162 466L 162 482L 146 482ZM 178 466L 194 466L 194 482L 178 482ZM 194 466L 210 466L 210 482L 194 482ZM 226 466L 242 466L 242 482L 226 482ZM 274 466L 290 466L 290 482L 274 482ZM 306 466L 322 466L 322 482L 306 482ZM 322 466L 338 466L 338 482L 322 482ZM 354 466L 370 466L 370 482L 354 482ZM 370 466L 386 466L 386 482L 370 482ZM 402 466L 418 466L 418 482L 402 482ZM 418 466L 434 466L 434 482L 418 482ZM 434 466L 450 466L 450 482L 434 482Z"/>
    </clipPath>
    <clipPath id="qr-clip-path-corners-square-color-0-0-11">
      <path clip-rule="evenodd" d="M 18 18v 112h 112v -112zM 34 34h 80v 80h -80z" transform="rotate(0,74,74)"/>
    </clipPath>
    <clipPath id="qr-clip-path-corners-dot-color-0-0-11">
      <rect x="50" y="50" width="48" height="48" transform="rotate(0,74,74)"/>
    </clipPath>
    <clipPath id="qr-clip-path-corners-square-color-1-0-11">
      <path clip-rule="evenodd" d="M 370 18v 112h 112v -112zM 386 34h 80v 80h -80z" transform="rotate(90,426,74)"/>
    </clipPath>
    <clipPath id="qr-clip-path-corners-dot-color-1-0-11">
      <rect x="402" y="50" width="48" height="48" transform="rotate(90,426,74)"/>
    </clipPath>
    <clipPath id="qr-clip-path-corners-square-color-0-1-11">
      <path clip-rule="evenodd" d="M 18 370v 112h 112v -112zM 34 386h 80v 80h -80z" transform="rotate(-90,74,426)"/>
    </clipPath>
    <clipPath id="qr-clip-path-corners-dot-color-0-1-11">
      <rect x="50" y="402" width="48" height="48" transform="rotate(-90,74,426)"/>
    </clipPath>
  </defs>
  <rect x="0" y="0" height="500" width="500" clip-path="url('#qr-clip-path-background-color-11')" fill="#FFFFFF"/>
  <rect x="0" y="0" height="500" width="500" clip-path="url('#qr-clip-path-dot-color-11')" fill="#5978B7"/>
  <rect x="18" y="18" height="112" width="112" clip-path="url('#qr-clip-path-corners-square-color-0-0-11')" fill="#5978B7"/>
  <rect x="50" y="50" height="48" width="48" clip-path="url('#qr-clip-path-corners-dot-color-0-0-11')" fill="#5978B7"/>
  <rect x="370" y="18" height="112" width="112" clip-path="url('#qr-clip-path-corners-square-color-1-0-11')" fill="#5978B7"/>
  <rect x="402" y="50" height="48" width="48" clip-path="url('#qr-clip-path-corners-dot-color-1-0-11')" fill="#5978B7"/>
  <rect x="18" y="370" height="112" width="112" clip-path="url('#qr-clip-path-corners-square-color-0-1-11')" fill="#5978B7"/>
  <rect x="50" y="402" height="48" width="48" clip-path="url('#qr-clip-path-corners-dot-color-0-1-11')" fill="#5978B7"/>
</svg>
